<?xml version="1.0" encoding="UTF-8"?>
<svg xmlns="http://www.w3.org/2000/svg" id="Icons" viewBox="0 0 74 74" width="512" height="512"><path d="M26.73,33H9.576a1,1,0,0,1-.924-1.383L11.436,24.9a1,1,0,0,1,.923-.617H23.947a1,1,0,0,1,.924.617l2.783,6.715A1,1,0,0,1,26.73,33ZM11.073,31h14.16l-1.954-4.715H13.027Z"/><path d="M22.47,4H19.53a1,1,0,0,1,0-2h2.94a1,1,0,0,1,0,2Z"/><path d="M31.52,26.28H4.78A2.783,2.783,0,0,1,2,23.5V4.78A2.783,2.783,0,0,1,4.78,2h7.75a1,1,0,0,1,0,2H4.78A.781.781,0,0,0,4,4.78V23.5a.781.781,0,0,0,.78.78H31.52a.776.776,0,0,0,.79-.78V4.78A.786.786,0,0,0,31.52,4H29.47a1,1,0,0,1,0-2h2.05a2.788,2.788,0,0,1,2.79,2.78V23.5A2.788,2.788,0,0,1,31.52,26.28Z"/><path d="M33.308,19.637H3a1,1,0,0,1,0-2H33.308a1,1,0,0,1,0,2Z"/><path d="M64.424,72H47.27a1,1,0,0,1-.924-1.383L49.129,63.9a1,1,0,0,1,.924-.617H61.641a1,1,0,0,1,.923.617l2.784,6.715A1,1,0,0,1,64.424,72ZM48.767,70h14.16l-1.954-4.715H50.721Z"/><path d="M69.217,65.285H42.476A2.787,2.787,0,0,1,39.692,62.5V43.783A2.787,2.787,0,0,1,42.476,41H69.217A2.787,2.787,0,0,1,72,43.783V62.5A2.787,2.787,0,0,1,69.217,65.285ZM42.476,43a.784.784,0,0,0-.784.783V62.5a.784.784,0,0,0,.784.783H69.217A.784.784,0,0,0,70,62.5V43.783A.784.784,0,0,0,69.217,43Z"/><path d="M71,58.637H40.692a1,1,0,0,1,0-2H71a1,1,0,0,1,0,2Z"/><path d="M63.971,28.971a1,1,0,0,1-1-1v-13H48.091a1,1,0,0,1,0-2h15.88a1,1,0,0,1,1,1v14A1,1,0,0,1,63.971,28.971Z"/><path d="M51.971,18.854a1,1,0,0,1-.707-.292l-3.883-3.884a1,1,0,0,1,0-1.414L51.264,9.38a1,1,0,1,1,1.414,1.414L49.5,13.971l3.176,3.176a1,1,0,0,1-.707,1.707Z"/><path d="M25.909,61.029H10.029a1,1,0,0,1-1-1v-14a1,1,0,0,1,2,0v13h14.88a1,1,0,0,1,0,2Z"/><path d="M22.029,64.913a1,1,0,0,1-.707-1.707L24.5,60.029l-3.176-3.176a1,1,0,1,1,1.414-1.415l3.883,3.884a1,1,0,0,1,0,1.414L22.736,64.62A1,1,0,0,1,22.029,64.913Z"/></svg>
