<svg id="Glyph" height="512" viewBox="0 0 512 512" width="512" xmlns="http://www.w3.org/2000/svg"><path d="m296 266.27a40.006 40.006 0 0 1 -19.885-5.27l-180.115-103.2v74.353c94.853 3.728 171.324 73.332 175.789 159.847h200.211a24.027 24.027 0 0 0 24-24v-210.2l-180.115 103.2a40.006 40.006 0 0 1 -19.885 5.27z"/><path d="m208.62 339.141c-30.207-16.477-69.942-25.984-112.62-27.041v55.9a24.027 24.027 0 0 0 24 24h135.285c-3.485-19.646-19.741-38.174-46.665-52.859z"/><path d="m307.932 247.117 187.657-107.517a24.036 24.036 0 0 0 -23.589-19.6h-352a24.036 24.036 0 0 0 -23.589 19.6l187.658 107.517a24.092 24.092 0 0 0 23.863 0z"/><path d="m244.559 344.851c-24.459-56.628-85.414-96.851-156.559-96.851a8 8 0 0 1 -8-8v-28.687l-60.687 60.687 60.687 60.687v-28.687a8 8 0 0 1 8-8c48.327 0 93.885 10.333 128.281 29.1a145.256 145.256 0 0 1 28.278 19.751z"/></svg>