<?xml version="1.0" encoding="iso-8859-1"?>
<!-- Generator: Adobe Illustrator 19.0.0, SVG Export Plug-In . SVG Version: 6.00 Build 0)  -->
<svg version="1.1" id="Layer_1" xmlns="http://www.w3.org/2000/svg" xmlns:xlink="http://www.w3.org/1999/xlink" x="0px" y="0px"
	 viewBox="0 0 511.999 511.999" style="enable-background:new 0 0 511.999 511.999;" xml:space="preserve">
<g>
	<path style="fill:#333333;" d="M255.998,292.203c-6.466,0-11.332,1.985-14.875,6.071c-7.679,8.854-9.606,27.126-5.723,54.307
		c5.049,35.355,13.983,51.182,20.598,51.182c6.614,0,15.549-15.826,20.599-51.182c3.882-27.181,1.957-45.453-5.724-54.307
		C267.331,294.189,262.464,292.203,255.998,292.203z"/>
	<path style="fill:#333333;" d="M223.418,112.836c-11.482-0.176-13.275,14.821-13.346,15.128
		c-5.072,21.935-12.332,30.692-20.018,39.963c-4.457,5.376-9.065,10.936-13.652,19.806c-3.441,6.656-4.351,12.23-2.704,16.569
		c1.894,4.991,6.837,7.195,7.456,7.454c2.831,0.923,5.609,1.392,8.261,1.392c27.086,0,42.481-49.819,43.669-65.641
		c0.792-10.561,1.988-26.521-3.423-32.352C228.737,114.158,227.086,112.893,223.418,112.836z"/>
	<path style="fill:#333333;" d="M248.481,249.17c1.331,0,2.613-0.502,3.609-1.415c1.106-1.014,2.509-1.521,3.911-1.521
		c1.403,0,2.806,0.508,3.912,1.522c0.994,0.912,2.276,1.414,3.606,1.414c2.864,0,5.211-2.26,5.351-5.089
		c-0.799-2.357-6.349-8.511-12.868-14.412c-6.523,5.905-12.075,12.06-12.873,14.412C243.269,246.91,245.617,249.17,248.481,249.17z"
		/>
	<path style="fill:#333333;" d="M212.684,406.202c-5.915-13.315-7.776-25.923-7.989-27.494
		c-14.077-87.608-40.84-124.686-48.711-133.967c0,0-8.383-9.896-16.772-16.929c-23.136-19.39-8.719-41.76-1.79-52.509
		c0,0,7.316-12.235,12.081-28.153c1.272-4.253,12.287-44.904,12.92-47.241c4.833-20.747,16.695-39.573,33.407-53.014
		c16.987-13.663,38.356-21.187,60.171-21.187s43.184,7.525,60.172,21.187c16.713,13.441,28.573,32.265,33.406,53.013
		c0.63,2.324,11.648,42.988,12.921,47.244c4.762,15.915,12.083,28.155,12.083,28.155c6.927,10.749,21.344,33.116-1.792,52.507
		c-8.399,7.041-16.771,16.928-16.771,16.928c-7.87,9.28-34.636,46.358-48.712,133.969c-0.215,1.577-2.077,14.184-7.993,27.497
		c27.707-6.371,31.91-21.363,39.994-50.39c7.558-27.141,24.363-47.392,40.614-66.977c27.153-32.723,50.602-60.982,26.23-114.561
		c-12.685-27.887-16.715-38.59-24.158-71.879c-8.397-37.563-32.047-64.249-70.288-79.316c-28.879-11.376-55.42-11.506-55.704-11.506
		c-0.284,0-27.142,0.175-56.04,11.638c-38.047,15.094-61.583,41.735-69.955,79.184c-7.444,33.289-11.473,43.992-24.159,71.879
		c-24.371,53.579-0.922,81.838,26.231,114.561c16.251,19.585,33.056,39.836,40.614,66.977
		C180.778,384.84,184.986,399.83,212.684,406.202z"/>
	<path style="fill:#333333;" d="M356.946,341.83c-2.603,5.424-4.815,11.093-6.487,17.091c-9.03,32.425-15.084,54.06-58.463,60.387
		c-7.754,11.054-19.214,20.032-35.997,20.032s-28.243-8.978-35.997-20.032c-43.377-6.326-49.431-27.961-58.461-60.386
		c-1.669-5.997-3.884-11.667-6.487-17.091c-35.553,12.507-113.909,48.205-113.909,87.143v71.449h37.472v-23.476
		c-0.036-7.311,0.386-44.531,12.302-56.45c2.261-2.261,5.925-2.262,8.186,0c2.261,2.26,2.261,5.925,0.001,8.186
		c-6.27,6.271-8.986,31.982-8.912,48.237v23.504h331.609v-23.476c0.073-16.282-2.642-41.994-8.912-48.265
		c-2.26-2.261-2.26-5.926,0.001-8.186c2.261-2.26,5.925-2.261,8.186,0c11.916,11.919,12.338,49.138,12.302,56.479v23.447h37.472
		v-71.449C470.854,390.037,392.501,354.337,356.946,341.83z"/>
</g>
<path style="fill:#E6E6E6;" d="M365.353,218.94c14.181-11.885,8.456-23.462-0.504-37.362c0,0-8.562-14.802-13.441-31.109
	c-1.348-4.502-12.555-45.875-13.032-47.635c-0.018-0.068-0.036-0.138-0.052-0.206c-8.914-38.473-42.767-65.343-82.324-65.343
	c-39.555,0-73.408,26.87-82.323,65.343c-0.016,0.068-0.034,0.138-0.052,0.206c-0.477,1.76-11.685,43.132-13.03,47.634
	c-4.882,16.311-13.441,31.108-13.441,31.108c-8.96,13.901-14.687,25.479-0.505,37.365c9.146,7.668,18.164,18.311,18.164,18.311
	c10.718,12.641,37.172,51.552,51.324,139.693c0.009,0.051,0.016,0.102,0.023,0.154c0.068,0.501,7.221,50.665,39.841,50.665
	c32.721,0,39.775-50.159,39.843-50.665c0.007-0.051,0.014-0.103,0.023-0.154c14.151-88.142,40.605-127.053,51.323-139.691
	C347.189,237.253,356.193,226.617,365.353,218.94z M259.723,217.553c9.457,7.94,20.731,18.939,20.731,26.258
	c0,9.338-7.598,16.936-16.935,16.936c-2.634,0-5.2-0.612-7.518-1.767c-2.319,1.154-4.886,1.767-7.519,1.767
	c-9.338,0-16.936-7.598-16.936-16.936c0-7.318,11.275-18.318,20.733-26.258C254.432,215.746,257.57,215.746,259.723,217.553z
	 M189.415,224.724c-3.937,0-7.99-0.682-12.047-2.026c-0.053-0.017-0.105-0.036-0.157-0.054c-0.417-0.152-10.276-3.837-14.256-14.023
	c-2.965-7.591-1.902-16.407,3.163-26.204c5.16-9.981,10.4-16.301,15.024-21.877c7.025-8.474,13.099-15.802,17.545-34.73
	c0.668-8.803,6.577-24.549,24.731-24.549c6.066,0,11.021,2.026,14.728,6.02c8.847,9.534,7.48,27.775,6.483,41.093
	C243.364,165.21,227.047,224.724,189.415,224.724z M288.06,354.217c-3.984,27.883-12.779,61.121-32.06,61.121
	c-19.283,0-28.077-33.239-32.059-61.121c-4.439-31.084-1.678-51.865,8.44-63.53c5.791-6.677,13.737-10.062,23.62-10.062
	c9.882,0,17.829,3.385,23.621,10.063C289.737,302.353,292.498,323.134,288.06,354.217z M334.788,222.644
	c-0.052,0.019-0.104,0.037-0.157,0.054c-4.057,1.345-8.109,2.026-12.042,2.026c-0.001,0-0.003,0-0.006,0
	c-37.629-0.006-53.949-59.515-55.213-76.352c-0.997-13.318-2.364-31.558,6.484-41.093c3.706-3.995,8.662-6.02,14.729-6.02
	c18.154,0,24.061,15.747,24.729,24.549c4.446,18.927,10.52,26.255,17.545,34.729c4.623,5.577,9.864,11.898,15.024,21.88
	c5.065,9.797,6.13,18.612,3.164,26.204C345.064,218.806,335.205,222.491,334.788,222.644z"/>
<path style="fill:#333333;" d="M321.944,167.926c-7.687-9.271-14.946-18.028-20.018-39.962c-0.075-0.328-2.728-15.448-13.344-15.128
	c-3.668,0-5.32,1.323-6.244,2.318c-5.412,5.833-4.216,21.792-3.424,32.352c1.188,15.82,16.585,65.636,43.671,65.641
	c0.001,0,0.002,0,0.003,0c2.656,0.001,5.44-0.47,8.278-1.399c0.467-0.194,5.517-2.389,7.435-7.446
	c1.646-4.339,0.736-9.913-2.706-16.57C331.01,178.861,326.401,173.302,321.944,167.926z"/>
<path d="M255.998,280.626c-9.882,0-17.829,3.385-23.62,10.062c-10.117,11.665-12.878,32.445-8.44,63.53
	c3.983,27.883,12.776,61.121,32.059,61.121c19.282,0,28.077-33.239,32.06-61.121c4.439-31.084,1.678-51.864-8.44-63.529
	C273.828,284.011,265.882,280.626,255.998,280.626z M276.597,352.58c-5.05,35.355-13.985,51.182-20.599,51.182
	c-6.615,0-15.549-15.826-20.598-51.182c-3.883-27.182-1.955-45.453,5.723-54.307c3.544-4.084,8.41-6.071,14.875-6.071
	c6.466,0,11.332,1.985,14.875,6.071C278.554,307.128,280.479,325.399,276.597,352.58z"/>
<path d="M238.146,107.279c-3.706-3.994-8.661-6.02-14.728-6.02c-18.155,0-24.063,15.747-24.731,24.549
	c-4.446,18.927-10.52,26.256-17.545,34.73c-4.623,5.577-9.864,11.898-15.024,21.877c-5.065,9.797-6.129,18.614-3.163,26.204
	c3.98,10.187,13.838,13.872,14.256,14.023c0.052,0.019,0.104,0.037,0.157,0.054c4.057,1.345,8.11,2.026,12.047,2.026
	c37.632,0,53.95-59.514,55.213-76.353C245.626,135.052,246.992,116.813,238.146,107.279z M233.084,147.506
	c-1.187,15.822-16.582,65.641-43.669,65.641c-2.652,0-5.43-0.468-8.261-1.392c-0.618-0.259-5.563-2.464-7.456-7.454
	c-1.646-4.339-0.736-9.913,2.704-16.569c4.587-8.87,9.195-14.43,13.652-19.806c7.686-9.271,14.946-18.028,20.018-39.963
	c0.072-0.307,1.864-15.304,13.346-15.128c3.668,0.057,5.318,1.323,6.242,2.318C235.07,120.984,233.874,136.945,233.084,147.506z"/>
<path d="M345.879,182.415c-5.16-9.982-10.4-16.302-15.024-21.88c-7.025-8.474-13.099-15.802-17.545-34.729
	c-0.668-8.803-6.576-24.549-24.729-24.549c-6.066,0-11.023,2.026-14.73,6.02c-8.848,9.535-7.481,27.775-6.484,41.093
	c1.265,16.835,17.584,76.346,55.213,76.352c0.002,0,0.005,0,0.006,0c3.934,0,7.986-0.682,12.042-2.026
	c0.053-0.017,0.105-0.036,0.157-0.054c0.417-0.152,10.276-3.837,14.256-14.023C352.009,201.029,350.944,192.212,345.879,182.415z
	 M338.301,204.302c-1.918,5.056-6.968,7.252-7.435,7.446c-2.838,0.928-5.623,1.4-8.278,1.399c-0.001,0-0.002,0-0.003,0
	c-27.086-0.003-42.482-49.82-43.671-65.641c-0.792-10.561-1.988-26.52,3.424-32.352c0.924-0.994,2.576-2.318,6.244-2.318
	c10.616-0.321,13.268,14.8,13.344,15.128c5.072,21.934,12.331,30.691,20.018,39.962c4.457,5.376,9.066,10.936,13.652,19.807
	C339.037,194.389,339.947,199.963,338.301,204.302z"/>
<path d="M231.545,243.811c0,9.338,7.598,16.936,16.936,16.936c2.634,0,5.2-0.612,7.519-1.767c2.318,1.155,4.884,1.767,7.518,1.767
	c9.337,0,16.935-7.598,16.935-16.936c0-7.318-11.274-18.318-20.731-26.258c-2.152-1.807-5.291-1.807-7.444,0
	C242.821,225.492,231.545,236.492,231.545,243.811z M256.002,229.667c6.519,5.901,12.069,12.055,12.868,14.412
	c-0.14,2.831-2.487,5.089-5.351,5.089c-1.33,0-2.612-0.502-3.606-1.414c-1.106-1.014-2.509-1.522-3.912-1.522
	c-1.402,0-2.805,0.507-3.911,1.521c-0.996,0.912-2.277,1.415-3.609,1.415c-2.865,0-5.212-2.26-5.352-5.089
	C243.928,241.727,249.48,235.573,256.002,229.667z"/>
<path d="M362.502,331.542c7.584-12.692,17.044-24.121,26.329-35.31c27.155-32.726,55.235-66.565,27.859-126.747
	c-11.703-25.73-15.77-35.497-23.397-69.611c-9.156-40.956-35.902-71.234-77.344-87.561C285.064,0.145,257.222,0,256.003,0h-0.001
	c-0.001,0-0.001,0-0.001,0h-0.002c-1.223,0-29.063,0.146-59.945,12.312c-41.442,16.327-68.188,46.605-77.344,87.561
	c-7.627,34.114-11.694,43.881-23.397,69.611c-27.376,60.182,0.704,94.021,27.859,126.747c9.286,11.19,18.744,22.618,26.329,35.31
	c-25.911,9.389-119.93,46.938-119.93,97.432v77.238c0,3.196,2.591,5.789,5.789,5.789h441.284c3.198,0,5.789-2.592,5.789-5.789
	v-77.238C482.431,378.49,388.432,340.939,362.502,331.542z M132.081,288.839c-27.153-32.723-50.602-60.982-26.231-114.561
	c12.686-27.887,16.716-38.59,24.159-71.879c8.37-37.448,31.908-64.09,69.955-79.184c28.898-11.464,55.756-11.638,56.04-11.638
	c0.285,0,26.825,0.131,55.702,11.506c38.241,15.066,61.891,41.752,70.288,79.316c7.444,33.289,11.473,43.992,24.158,71.879
	c24.372,53.579,0.923,81.838-26.23,114.561c-16.251,19.585-33.056,39.836-40.614,66.977c-8.084,29.027-12.287,44.02-39.994,50.39
	c5.916-13.312,7.779-25.92,7.993-27.497c14.075-87.61,40.842-124.689,48.712-133.969c0,0,8.371-9.887,16.771-16.928
	c23.134-19.39,8.719-41.757,1.792-52.507c0,0-7.32-12.24-12.083-28.155c-1.273-4.256-12.291-44.92-12.921-47.244
	c-4.833-20.747-16.694-39.572-33.406-53.013c-16.988-13.663-38.357-21.187-60.172-21.187s-43.184,7.525-60.171,21.187
	c-16.713,13.441-28.575,32.266-33.407,53.014c-0.633,2.337-11.649,42.988-12.92,47.241c-4.764,15.919-12.081,28.153-12.081,28.153
	c-6.929,10.749-21.347,33.117,1.79,52.509c8.389,7.033,16.772,16.929,16.772,16.929c7.87,9.281,34.634,46.358,48.711,133.967
	c0.214,1.571,2.075,14.18,7.989,27.494c-27.699-6.372-31.906-21.362-39.99-50.386C165.137,328.675,148.331,308.424,132.081,288.839z
	 M295.865,376.944c-0.009,0.051-0.016,0.102-0.023,0.154c-0.068,0.507-7.121,50.665-39.843,50.665
	c-32.621,0-39.773-50.164-39.841-50.665c-0.007-0.051-0.014-0.103-0.023-0.154c-14.152-88.14-40.605-127.052-51.324-139.693
	c0,0-9.017-10.644-18.164-18.311c-14.182-11.886-8.456-23.464,0.505-37.365c0,0,8.559-14.797,13.441-31.108
	c1.345-4.502,12.553-45.874,13.03-47.634c0.019-0.068,0.036-0.138,0.052-0.206c8.916-38.473,42.768-65.343,82.324-65.343
	c39.557,0,73.409,26.869,82.323,65.343c0.016,0.068,0.034,0.138,0.052,0.206c0.477,1.76,11.685,43.133,13.032,47.635
	c4.879,16.306,13.441,31.109,13.441,31.109c8.958,13.899,14.684,25.477,0.504,37.362c-9.159,7.677-18.163,18.313-18.163,18.313
	C336.471,249.891,310.016,288.802,295.865,376.944z M470.854,500.423h-37.472v-23.447c0.036-7.34-0.385-44.56-12.302-56.479
	c-2.261-2.261-5.925-2.261-8.186,0c-2.261,2.26-2.261,5.925-0.001,8.186c6.27,6.271,8.986,31.982,8.912,48.265v23.476H90.197V476.92
	c-0.073-16.254,2.642-41.966,8.912-48.237c2.26-2.261,2.26-5.926-0.001-8.186c-2.261-2.261-5.925-2.261-8.186,0
	c-11.916,11.919-12.338,49.138-12.302,56.45v23.476H41.147v-71.449c0-38.938,78.356-74.636,113.909-87.143
	c2.603,5.424,4.816,11.094,6.487,17.091c9.03,32.425,15.084,54.06,58.461,60.386c7.753,11.054,19.214,20.032,35.997,20.032
	s28.242-8.978,35.997-20.032c43.379-6.326,49.433-27.961,58.463-60.387c1.671-5.998,3.883-11.669,6.487-17.091
	c35.556,12.508,113.909,48.207,113.909,87.144v71.449H470.854z"/>
<g>
</g>
<g>
</g>
<g>
</g>
<g>
</g>
<g>
</g>
<g>
</g>
<g>
</g>
<g>
</g>
<g>
</g>
<g>
</g>
<g>
</g>
<g>
</g>
<g>
</g>
<g>
</g>
<g>
</g>
</svg>
